<?xml version="1.0" encoding="utf-8"?>
<!-- Generator: Adobe Illustrator 19.2.0, SVG Export Plug-In . SVG Version: 6.00 Build 0)  -->
<svg version="1.1" id="Layer_1" xmlns="http://www.w3.org/2000/svg" xmlns:xlink="http://www.w3.org/1999/xlink" x="0px" y="0px"
	 width="341.7px" height="404.9px" viewBox="0 0 341.7 404.9" enable-background="new 0 0 341.7 404.9" xml:space="preserve">
<path fill="#F0D955" d="M0,340.1l60.4-72.1c38.6,30.8,81.7,47,127,47c29.1,0,44.7-10.1,44.7-28c0-16.2-12.9-25.2-66-37.5
	c-83.3-19-147.7-42.5-147.7-124.2C18.5,52.6,76.1,0,170,0c66.6,0,118.6,17.9,161.1,52l-54.3,76.6C241.1,103.5,201.9,90,167.2,90
	c-26.3,0-39.2,11.2-39.2,26.3c0,17.9,13.4,25.7,67.7,38c90,19.6,146,48.7,146,123c0,80-63.2,127.5-158.3,127.5
	C114.1,404.9,48.1,383.1,0,340.1z"/>
<g>
</g>
<g>
</g>
<g>
</g>
<g>
</g>
<g>
</g>
<g>
</g>
</svg>
