<?xml version="1.0" encoding="utf-8"?>
<!-- Generator: Adobe Illustrator 19.2.0, SVG Export Plug-In . SVG Version: 6.00 Build 0)  -->
<svg version="1.1" id="Слой_1" xmlns="http://www.w3.org/2000/svg" xmlns:xlink="http://www.w3.org/1999/xlink" x="0px" y="0px"
	 width="1432px" height="566.9px" viewBox="0 0 1432 566.9" enable-background="new 0 0 1432 566.9" xml:space="preserve">
<g>
	<path fill="#F0D955" d="M777.8,262.9c0,110.7-82.2,195.7-190.1,195.7H431.1V67.2h156.5C695.6,67.2,777.8,152.2,777.8,262.9z
		 M691.7,262.9c0-67.1-42.5-109.6-104-109.6h-67.1v219.2h67.1C649.2,372.5,691.7,330,691.7,262.9z"/>
</g>
<path fill="#F0D955" d="M8.1,67h114.7l93.4,151.6L309.6,67h114.7v391.5H316.3V233.6L216.2,386.9h-2.2l-99.6-152.1v223.7H8.1V67z"/>
<path fill="#F0D955" d="M721,67h121.4l88.9,247.8L1020.2,67h119.1L980.5,461.3H879.8L721,67z"/>
<path fill="#F0D955" d="M1093.3,400.3l60.4-72.1c38.6,30.8,81.7,47,127,47c29.1,0,44.7-10.1,44.7-28c0-16.2-12.9-25.2-66-37.5
	c-83.3-19-147.7-42.5-147.7-124.2c0-72.7,57.6-125.3,151.6-125.3c66.6,0,118.6,17.9,161.1,52l-54.3,76.6
	c-35.8-25.2-74.9-38.6-109.6-38.6c-26.3,0-39.2,11.2-39.2,26.3c0,17.9,13.4,25.7,67.7,38c90,19.6,146,48.7,146,123
	c0,80-63.2,127.5-158.3,127.5C1207.4,465.2,1141.4,443.4,1093.3,400.3z"/>
<g>
</g>
<g>
</g>
<g>
</g>
<g>
</g>
<g>
</g>
<g>
</g>
</svg>
