<?xml version="1.0" encoding="utf-8"?>
<!-- Generator: Adobe Illustrator 19.2.0, SVG Export Plug-In . SVG Version: 6.00 Build 0)  -->
<svg version="1.1" id="Layer_2" xmlns="http://www.w3.org/2000/svg" xmlns:xlink="http://www.w3.org/1999/xlink" x="0px" y="0px"
	 width="319px" height="301.5px" viewBox="0 0 319 301.5" style="enable-background:new 0 0 319 301.5;" xml:space="preserve">
<style type="text/css">
	.st0{fill:#F0D955;}
</style>
<path class="st0" d="M0,253.5l44.8-53.5c28.7,22.9,60.7,34.9,94.3,34.9c21.6,0,33.2-7.5,33.2-20.8c0-12-9.6-18.7-49-27.8
	C61.5,172.1,13.7,154.6,13.7,94c0-54,42.8-93,112.6-93c49.5,0,88.1,13.3,119.6,38.6l-40.3,56.9c-26.6-18.7-55.6-28.7-81.4-28.7
	c-19.5,0-29.1,8.3-29.1,19.5c0,13.3,10,19.1,50.3,28.2c66.8,14.6,108.4,36.2,108.4,91.3c0,59.4-46.9,94.7-117.5,94.7
	C84.7,301.6,35.7,285.5,0,253.5z"/>
</svg>
