<?xml version="1.0" encoding="utf-8"?>
<!-- Generator: Adobe Illustrator 19.2.0, SVG Export Plug-In . SVG Version: 6.00 Build 0)  -->
<svg version="1.1" xmlns="http://www.w3.org/2000/svg" xmlns:xlink="http://www.w3.org/1999/xlink" x="0px" y="0px" width="319px"
	 height="301.5px" viewBox="0 0 319 301.5" style="enable-background:new 0 0 319 301.5;" xml:space="preserve">
<style type="text/css">
	.st0{display:none;}
	.st1{display:inline;fill:#F0D955;}
	.st2{fill:#EFD954;}
</style>
<g id="Layer_1" class="st0">
	<polygon class="st1" points="231.5,0 159.5,116.5 87.5,0 0,0 0,301.5 81.5,301.5 81.5,128.5 159.5,246.5 237.5,128.5 237.5,301.5 
		319,301.5 319,0 	"/>
</g>
<g id="Layer_2">
	<g>
		<path class="st2" d="M266.5,150.6c0,85.1-63.2,150.4-146.1,150.4H0V0.2h120.3C203.3,0.2,266.5,65.5,266.5,150.6z M200.3,150.6
			c0-51.6-32.7-84.2-79.9-84.2H68.8v168.5h51.6C167.6,234.8,200.3,202.2,200.3,150.6z"/>
	</g>
</g>
</svg>
